<svg width="46" height="46" fill="none" stroke="#7e678b" stroke-linecap="round" stroke-linejoin="round" stroke-width="2" viewBox="0 0 24 24" xmlns="http://www.w3.org/2000/svg">
  <path d="M7.875 22.5a2.242 2.242 0 0 0 2.25-2.25v-4.5"></path>
  <path d="M16.125 22.5a2.242 2.242 0 0 1-2.25-2.25v-4.5"></path>
  <path d="M14.25 15.75h1.5A2.24 2.24 0 0 1 18 18v.75A2.242 2.242 0 0 0 20.25 21"></path>
  <path d="M9.75 15.75h-1.5A2.24 2.24 0 0 0 6 18v.75A2.24 2.24 0 0 1 3.75 21"></path>
  <path d="M10.481 6a4.876 4.876 0 0 0-4.106-2.25 4.875 4.875 0 0 0-.328 4.19 4.622 4.622 0 0 0-.797 2.56v.75a4.5 4.5 0 0 0 4.5 4.5h4.5a4.5 4.5 0 0 0 4.5-4.5v-.75a4.622 4.622 0 0 0-.797-2.56 4.874 4.874 0 0 0-.328-4.19A4.875 4.875 0 0 0 13.519 6H10.48Z"></path>
</svg>