<svg width="30" height="30" viewBox="0 0 30 30" fill="none" xmlns="http://www.w3.org/2000/svg">
<g clip-path="url(#clip0_14_24)">
<path fill-rule="evenodd" clip-rule="evenodd" d="M3.33333 30H26.6667C28.5076 30 30 28.5076 30 26.6667V3.33333C30 1.49238 28.5076 0 26.6667 0H3.33333C1.49238 0 0 1.49238 0 3.33333V26.6667C0 28.5076 1.49238 30 3.33333 30Z" fill="#007EBB"/>
<path fill-rule="evenodd" clip-rule="evenodd" d="M25.8334 25.8333H21.3816V18.2508C21.3816 16.1719 20.5917 15.0102 18.9462 15.0102C17.1562 15.0102 16.2209 16.2192 16.2209 18.2508V25.8333H11.9306V11.3888H16.2209V13.3345C16.2209 13.3345 17.5109 10.9475 20.5761 10.9475C23.6399 10.9475 25.8334 12.8185 25.8334 16.688V25.8333ZM6.81231 9.49747C5.35094 9.49747 4.16675 8.30398 4.16675 6.83205C4.16675 5.36011 5.35094 4.16663 6.81231 4.16663C8.27368 4.16663 9.45717 5.36011 9.45717 6.83205C9.45717 8.30398 8.27368 9.49747 6.81231 9.49747ZM4.59698 25.8333H9.07067V11.3888H4.59698V25.8333Z" fill="white"/>
</g>
<defs>
<clipPath id="clip0_14_24">
<rect width="30" height="30" fill="white"/>
</clipPath>
</defs>
</svg>
