<svg width="30" height="30" viewBox="0 0 30 30" fill="none" xmlns="http://www.w3.org/2000/svg">
<g clip-path="url(#clip0_14_48)">
<path d="M25.5 0H4.5C2.01472 0 0 2.01472 0 4.5V25.5C0 27.9853 2.01472 30 4.5 30H25.5C27.9853 30 30 27.9853 30 25.5V4.5C30 2.01472 27.9853 0 25.5 0Z" fill="#1DA1F2"/>
<path d="M25.6055 8.90629C24.9023 9.25785 24.082 9.49223 23.2617 9.60942C24.1406 9.08207 24.7852 8.26176 25.1367 7.26567C24.3164 7.73442 23.4375 8.08598 22.5 8.26176C21.8624 7.60869 21.0301 7.18003 20.1282 7.04011C19.2263 6.90018 18.3033 7.05654 17.4977 7.48572C16.6922 7.91489 16.0476 8.59374 15.6606 9.42038C15.2736 10.247 15.1652 11.1769 15.3516 12.0704C12.0703 11.8946 8.90625 10.3711 6.85547 7.73442C6.57642 8.18011 6.38836 8.67664 6.30212 9.19537C6.21588 9.71409 6.23318 10.2448 6.35301 10.7568C6.47284 11.2688 6.69284 11.752 7.00032 12.1786C7.3078 12.6052 7.69668 12.9667 8.14453 13.2422C7.5 13.2422 6.85547 13.125 6.26953 12.8321C6.32812 14.7657 7.67578 16.4649 9.55078 16.875C8.96484 17.0508 8.32031 17.0508 7.67578 16.9336C8.26172 18.6329 9.84375 19.8047 11.6016 19.8633C9.90234 21.2696 7.61719 21.9141 5.44922 21.5625C7.26089 22.7714 9.37493 23.4488 11.5518 23.5178C13.7287 23.5868 15.8814 23.0447 17.766 21.953C19.6506 20.8613 21.1918 19.2635 22.2149 17.3408C23.238 15.4181 23.7021 13.2472 23.5547 11.0743C24.375 10.4883 25.0781 9.7852 25.6055 8.90629Z" fill="white"/>
</g>
<defs>
<clipPath id="clip0_14_48">
<rect width="30" height="30" fill="white"/>
</clipPath>
</defs>
</svg>
